# xmcd CD database file
#
# Track frame offsets:
#	150
#	13877
#	28482
#	39760
#	54270
#	67285
#
# Disc length: 1059 seconds
#
# Revision: 0
# Processed by: cddbd v1.5.2PL0 Copyright (c) Steve Scherf et al.
# Submitted via: CDex 1.51
#
DISCID=4f042106
DTITLE=The Friggs - Thrill Freaks Vol.3
DYEAR=1995
DGENRE=Garage Rock
TTITLE0=Shake
TTITLE1=Conestoga Nova
TTITLE2=Wild Love
TTITLE3=Born 2 Make You Cry
TTITLE4=You Don't Know What You Got Until You Lose It
TTITLE5=Mama, Look At me Now!
EXTD=YEAR: 1995
EXTT0=
EXTT1=
EXTT2=
EXTT3=
EXTT4=
EXTT5=
PLAYORDER=
